<?xml version="1.0" encoding="UTF-8" standalone="no"?>
<!-- Created with Inkscape (http://www.inkscape.org/) -->

<svg
   xmlns:dc="http://purl.org/dc/elements/1.1/"
   xmlns:cc="http://creativecommons.org/ns#"
   xmlns:rdf="http://www.w3.org/1999/02/22-rdf-syntax-ns#"
   xmlns:svg="http://www.w3.org/2000/svg"
   xmlns="http://www.w3.org/2000/svg"
   xmlns:sodipodi="http://sodipodi.sourceforge.net/DTD/sodipodi-0.dtd"
   xmlns:inkscape="http://www.inkscape.org/namespaces/inkscape"
   version="1.1"
   id="svg60779"
   xml:space="preserve"
   width="800"
   height="800"
   viewBox="0 0 800 800"
   sodipodi:docname="smoking-pipe-publicdomainvectors.org.svg"
   inkscape:version="0.92.4 (5da689c313, 2019-01-14)"><metadata
     id="metadata60785"><rdf:RDF><cc:Work
         rdf:about=""><dc:format>image/svg+xml</dc:format><dc:type
           rdf:resource="http://purl.org/dc/dcmitype/StillImage" /><dc:title></dc:title></cc:Work></rdf:RDF></metadata><defs
     id="defs60783"><clipPath
       clipPathUnits="userSpaceOnUse"
       id="clipPath60795"><path
         d="M 0,600 H 600 V 0 H 0 Z"
         id="path60793"
         inkscape:connector-curvature="0" /></clipPath></defs><sodipodi:namedview
     pagecolor="#ffffff"
     bordercolor="#666666"
     borderopacity="1"
     objecttolerance="10"
     gridtolerance="10"
     guidetolerance="10"
     inkscape:pageopacity="0"
     inkscape:pageshadow="2"
     inkscape:window-width="797"
     inkscape:window-height="480"
     id="namedview60781"
     showgrid="false"
     inkscape:zoom="0.295"
     inkscape:cx="400"
     inkscape:cy="400"
     inkscape:window-x="0"
     inkscape:window-y="0"
     inkscape:window-maximized="0"
     inkscape:current-layer="g60787" /><g
     id="g60787"
     inkscape:groupmode="layer"
     inkscape:label="smoking-pipe-publicdomainvectors.org"
     transform="matrix(1.3333333,0,0,-1.3333333,0,800)"><g
       id="g60789"><g
         id="g60791"
         clip-path="url(#clipPath60795)"><path
           d="m 268.237,100.89 c 130.515,0 236.962,12.017 236.962,26.753 0,14.733 -106.447,26.75 -236.962,26.75 -130.513,0 -236.962,-12.017 -236.962,-26.75 0,-14.736 106.449,-26.753 236.962,-26.753"
           style="fill:#e6e6e6;fill-opacity:1;fill-rule:evenodd;stroke:none"
           id="path60797"
           inkscape:connector-curvature="0" /><path
           d="m 10.709,282.911 158.998,57.071 c 23.599,-29.4 36.277,-47.706 55.663,-73.45 27.6,26.265 55.861,51.856 82.8,78.798 78.391,78.397 154.941,163.063 238.857,180.163 16.657,-3.028 33.315,-6.057 49.973,-9.086 -2.119,-3.634 -4.24,-7.269 -6.359,-10.904 C 472.727,484.024 430.865,373.233 360.758,294.701 314.678,243.086 278.703,185.57 217.193,144.777 90.493,60.747 19.828,169.422 10.709,282.911"
           style="fill:#704316;fill-opacity:1;fill-rule:evenodd;stroke:none"
           id="path60799"
           inkscape:connector-curvature="0" /><path
           d="m 169.707,339.982 c 23.599,-29.4 36.277,-47.706 55.663,-73.45 27.6,26.265 55.861,51.856 82.8,78.798 78.391,78.397 154.941,163.063 238.857,180.163 16.657,-3.028 33.315,-6.057 49.973,-9.086 C 481.551,531.948 308.586,295.275 236.298,238.128 213.762,269.437 189.167,308.06 169.707,339.982"
           style="fill:#805121;fill-opacity:1;fill-rule:evenodd;stroke:none"
           id="path60801"
           inkscape:connector-curvature="0" /><path
           d="M 590.641,505.503 C 472.727,484.024 430.865,373.233 360.758,294.701 314.678,243.086 278.703,185.57 217.193,144.777 166.705,111.293 125.128,108.43 92.785,124.254 299.607,103.321 421.959,521.985 590.641,505.503"
           style="fill:#59340f;fill-opacity:1;fill-rule:evenodd;stroke:none"
           id="path60803"
           inkscape:connector-curvature="0" /><path
           d="m 10.709,282.911 158.998,57.071 c 23.599,-29.4 36.277,-47.706 55.663,-73.45 26.518,-48.337 11.043,-103.555 -8.177,-121.755 C 90.493,60.747 19.828,169.422 10.709,282.911"
           style="fill:#805121;fill-opacity:1;fill-rule:evenodd;stroke:none"
           id="path60805"
           inkscape:connector-curvature="0" /><path
           d="m 169.707,339.982 c 23.599,-29.4 36.277,-47.706 55.663,-73.45 5.11,-9.312 8.653,-18.883 10.918,-28.392 -22.532,31.305 -47.122,69.925 -66.581,101.842"
           style="fill:#966431;fill-opacity:1;fill-rule:evenodd;stroke:none"
           id="path60807"
           inkscape:connector-curvature="0" /><path
           d="m 235.107,178.168 c -4.145,-14.742 -10.769,-26.627 -17.914,-33.391 -50.488,-33.484 -92.065,-36.347 -124.408,-20.523 52.107,-5.274 98.849,17.371 142.322,53.914"
           style="fill:#704316;fill-opacity:1;fill-rule:evenodd;stroke:none"
           id="path60809"
           inkscape:connector-curvature="0" /><path
           d="m 308.17,345.33 c 78.391,78.397 154.941,163.063 238.857,180.163 16.657,-3.028 33.315,-6.057 49.973,-9.086 -2.119,-3.634 -4.24,-7.269 -6.359,-10.904 -117.914,-21.479 -159.776,-132.27 -229.883,-210.802 0.135,20.144 -31.36,49.425 -52.588,50.629"
           style="fill:#1a1a1a;fill-opacity:1;fill-rule:evenodd;stroke:none"
           id="path60811"
           inkscape:connector-curvature="0" /><path
           d="m 308.17,345.33 c 78.391,78.397 154.941,163.063 238.857,180.163 16.657,-3.028 33.315,-6.057 49.973,-9.086 -78.139,10.519 -182.611,-94.488 -264.398,-181.184 -8.198,5.768 -16.952,9.684 -24.432,10.107"
           style="fill:#292929;fill-opacity:1;fill-rule:evenodd;stroke:none"
           id="path60813"
           inkscape:connector-curvature="0" /><path
           d="M 590.641,505.503 C 472.727,484.024 430.865,373.233 360.758,294.701 c 0.035,5.324 -2.143,11.291 -5.754,17.206 77.904,100.417 150.93,201.874 235.637,193.596"
           style="fill:#0f0f0f;fill-opacity:1;fill-rule:evenodd;stroke:none"
           id="path60815"
           inkscape:connector-curvature="0" /><path
           d="m 76.146,345.782 c 43.555,17.209 85.443,14.612 93.561,-5.8 8.116,-20.411 -20.614,-50.906 -64.168,-68.114 -43.557,-17.209 -85.445,-14.612 -93.56,5.803 -8.119,20.409 20.61,50.903 64.167,68.111"
           style="fill:#996633;fill-opacity:1;fill-rule:evenodd;stroke:none"
           id="path60817"
           inkscape:connector-curvature="0" /><path
           d="m 81.677,331.875 c 27.164,10.73 53.289,9.113 58.353,-3.617 5.062,-12.731 -12.857,-31.752 -40.023,-42.483 -27.164,-10.731 -53.29,-9.11 -58.354,3.621 -5.061,12.727 12.856,31.749 40.024,42.479"
           style="fill:#542c03;fill-opacity:1;fill-rule:evenodd;stroke:none"
           id="path60819"
           inkscape:connector-curvature="0" /><path
           d="m 81.677,331.875 c 27.164,10.73 53.289,9.113 58.353,-3.617 5.062,-12.731 -12.857,-31.752 -40.023,-42.483 -10.229,-4.04 -20.312,-6.33 -29.178,-6.933 -1.964,2.732 -3.425,6.049 -4.281,9.941 -2.547,11.58 0.723,26.037 8.058,40.016 2.277,1.086 4.635,2.115 7.071,3.076"
           style="fill:#402102;fill-opacity:1;fill-rule:evenodd;stroke:none"
           id="path60821"
           inkscape:connector-curvature="0" /></g></g></g></svg>